<svg width="306.67" height="94" viewBox="0 0 920 282" fill="none" xmlns="http://www.w3.org/2000/svg">
<rect width="919.1" height="281.07" fill="white"/>
<path d="M160.167 143.65H130.375L82.6777 108.61V143.65H64V64H82.6777V97.1876L126.825 64H153.684L100.892 101.51L160.167 143.65ZM272.687 97.1876C272.687 107.478 266.718 112.624 254.781 112.624H204.768V143.65H186.554V64H254.781C266.718 64 272.687 69.1454 272.687 79.4361V97.1876ZM254.781 92.5568V84.0669C254.781 81.3913 254.009 79.6419 252.466 78.8187C251.334 78.0983 249.327 77.7381 246.446 77.7381H204.768V98.8856H246.446C249.327 98.8856 251.334 98.5254 252.466 97.8051C254.009 96.9818 254.781 95.2324 254.781 92.5568ZM384.779 64L340.94 143.65H328.128L282.129 64H303.276L335.538 121.577L366.256 64H384.779ZM488.612 143.65H406.338V64H487.841V77.5838H424.861V95.3353H461.599V108.919H424.861V128.677H488.612V143.65ZM617.331 143.65H590.781L558.674 113.55H541.077V143.65H522.863V64H591.09C603.027 64 608.996 69.1454 608.996 79.4361V98.1138C608.996 105.832 605.909 110.617 599.734 112.469C597.367 113.19 590.987 113.55 580.594 113.55L617.331 143.65ZM591.09 93.6373V84.0669C591.09 81.3913 590.318 79.6419 588.775 78.8187C587.643 78.0983 585.636 77.7381 582.755 77.7381H541.077V99.9661H582.755C585.636 99.9661 587.643 99.6059 588.775 98.8856C590.318 98.0623 591.09 96.3129 591.09 93.6373ZM733.065 124.818C733.065 132.228 731.624 137.219 728.743 139.791C725.861 142.364 720.665 143.65 713.152 143.65H663.911C655.781 143.65 650.43 142.21 647.858 139.328C645.285 136.447 643.999 130.89 643.999 122.657L660.361 119.261V128.677H716.703V110.463H666.998C659.486 110.463 654.289 109.176 651.408 106.604C648.629 104.031 647.24 99.0399 647.24 91.6306V82.832C647.24 75.4227 648.629 70.4317 651.408 67.859C654.289 65.2863 659.486 64 666.998 64H712.226C719.841 64 725.038 65.3378 727.817 68.0134C730.595 70.5861 731.984 75.6285 731.984 83.1408L715.622 86.9998V77.8925H663.448V95.0266H713.152C720.665 95.0266 725.861 96.3129 728.743 98.8856C731.624 101.458 733.065 106.449 733.065 113.859V124.818ZM853.712 143.65H771.438V64H852.94V77.5838H789.961V95.3353H826.699V108.919H789.961V128.677H853.712V143.65Z" fill="black"/>
<path d="M87.0683 190.721C87.0683 189.202 87.4385 187.817 88.179 186.567C88.929 185.307 89.9292 184.307 91.1793 183.567C92.439 182.817 93.8287 182.442 95.348 182.442C96.6846 182.442 97.9158 182.73 99.0407 183.307C100.166 183.884 101.094 184.673 101.825 185.673C102.565 186.673 103.017 187.803 103.181 189.063H99.1561C98.9927 188.245 98.5503 187.582 97.8291 187.072C97.1078 186.553 96.2808 186.293 95.348 186.293C94.5402 186.293 93.7998 186.495 93.1266 186.899C92.4631 187.293 91.9294 187.827 91.5255 188.5C91.1313 189.164 90.9341 189.899 90.9341 190.707C90.9341 191.524 91.1313 192.269 91.5255 192.943C91.9294 193.606 92.4631 194.14 93.1266 194.544C93.7998 194.948 94.5402 195.15 95.348 195.15C96.2808 195.15 97.079 194.894 97.7425 194.385C98.406 193.866 98.8196 193.197 98.9831 192.38H103.008C102.844 193.641 102.406 194.77 101.695 195.77C100.993 196.77 100.094 197.559 98.9974 198.136C97.9012 198.713 96.6846 199.001 95.348 199.001C93.8287 199.001 92.439 198.63 91.1793 197.89C89.9292 197.141 88.929 196.14 88.179 194.891C87.4385 193.631 87.0683 192.241 87.0683 190.721ZM95.2326 205.954C93.1363 205.954 91.1648 205.559 89.3185 204.771C87.4818 203.982 85.8614 202.891 84.4574 201.496C83.063 200.093 81.9667 198.472 81.1686 196.636C80.38 194.799 79.9906 192.827 80.0002 190.721C80.0098 188.615 80.4089 186.644 81.1974 184.807C81.9956 182.971 83.0919 181.355 84.4863 179.961C85.8806 178.557 87.4962 177.46 89.3329 176.672C91.1697 175.883 93.1363 175.489 95.2326 175.489C97.3386 175.489 99.3101 175.883 101.147 176.672C102.993 177.46 104.609 178.557 105.993 179.961C107.388 181.355 108.479 182.971 109.268 184.807C110.056 186.644 110.456 188.615 110.465 190.721C110.475 192.827 110.085 194.799 109.297 196.636C108.508 198.472 107.417 200.093 106.022 201.496C104.628 202.891 103.008 203.982 101.161 204.771C99.3149 205.559 97.3386 205.954 95.2326 205.954ZM95.2326 201.641C96.7425 201.641 98.1609 201.357 99.4879 200.79C100.815 200.223 101.974 199.444 102.964 198.453C103.964 197.453 104.743 196.294 105.301 194.977C105.868 193.649 106.152 192.236 106.152 190.736C106.143 189.226 105.854 187.808 105.287 186.481C104.729 185.154 103.95 183.995 102.95 183.004C101.95 182.004 100.791 181.22 99.4735 180.653C98.1559 180.086 96.7425 179.802 95.2326 179.802C93.7325 179.802 92.3237 180.086 91.0062 180.653C89.6888 181.22 88.53 182.004 87.5299 183.004C86.5297 184.004 85.746 185.168 85.1786 186.495C84.6113 187.812 84.3228 189.226 84.3132 190.736C84.3132 192.226 84.592 193.636 85.1498 194.962C85.7172 196.279 86.5009 197.438 87.501 198.439C88.5011 199.439 89.6599 200.223 90.9774 200.79C92.3044 201.357 93.7229 201.641 95.2326 201.641ZM126.812 205.493V175.951H132.164V189.524H132.524L144.049 175.951H150.584L139.159 189.207L150.685 205.493H144.251L135.438 192.827L132.164 196.693V205.493H126.812ZM160.447 205.939C159.043 205.939 157.778 205.689 156.653 205.189C155.537 204.679 154.653 203.93 153.999 202.939C153.354 201.949 153.032 200.727 153.032 199.275C153.032 198.026 153.263 196.991 153.725 196.174C154.186 195.356 154.816 194.703 155.614 194.212C156.412 193.722 157.312 193.352 158.312 193.101C159.322 192.842 160.365 192.654 161.442 192.54C162.74 192.404 163.793 192.284 164.601 192.178C165.409 192.063 165.995 191.89 166.361 191.659C166.736 191.419 166.923 191.048 166.923 190.548V190.462C166.923 189.375 166.601 188.534 165.957 187.937C165.313 187.341 164.385 187.043 163.173 187.043C161.894 187.043 160.879 187.322 160.129 187.88C159.389 188.438 158.889 189.096 158.629 189.856L153.754 189.164C154.138 187.817 154.773 186.692 155.658 185.788C156.542 184.875 157.624 184.192 158.903 183.74C160.182 183.278 161.596 183.047 163.144 183.047C164.211 183.047 165.274 183.173 166.332 183.423C167.39 183.673 168.356 184.086 169.231 184.663C170.106 185.23 170.808 186.005 171.337 186.985C171.876 187.966 172.145 189.193 172.145 190.664V205.493H167.125V202.449H166.952C166.635 203.064 166.188 203.641 165.611 204.179C165.043 204.709 164.327 205.136 163.461 205.463C162.606 205.78 161.601 205.939 160.447 205.939ZM161.802 202.102C162.851 202.102 163.759 201.896 164.529 201.483C165.298 201.059 165.89 200.502 166.303 199.809C166.726 199.117 166.938 198.361 166.938 197.544V194.934C166.774 195.068 166.495 195.193 166.101 195.308C165.716 195.424 165.284 195.525 164.803 195.612C164.322 195.698 163.846 195.774 163.375 195.842C162.904 195.909 162.495 195.967 162.149 196.015C161.37 196.121 160.673 196.294 160.057 196.535C159.442 196.775 158.956 197.111 158.6 197.544C158.244 197.968 158.067 198.516 158.067 199.188C158.067 200.15 158.418 200.877 159.12 201.367C159.821 201.858 160.716 202.102 161.802 202.102ZM177.396 205.493V183.336H182.459V187.029H182.69C183.093 185.75 183.786 184.764 184.767 184.072C185.757 183.37 186.887 183.019 188.156 183.019C188.445 183.019 188.767 183.033 189.123 183.062C189.488 183.081 189.791 183.115 190.032 183.163V187.966C189.81 187.889 189.46 187.822 188.979 187.764C188.507 187.697 188.051 187.663 187.608 187.663C186.656 187.663 185.8 187.87 185.041 188.284C184.291 188.687 183.699 189.25 183.266 189.971C182.834 190.693 182.617 191.524 182.617 192.467V205.493H177.396ZM205.754 183.336V187.375H193.017V183.336H205.754ZM196.162 178.028H201.384V198.828C201.384 199.53 201.49 200.068 201.701 200.444C201.922 200.809 202.211 201.059 202.566 201.194C202.923 201.328 203.317 201.395 203.75 201.395C204.077 201.395 204.374 201.372 204.643 201.324C204.922 201.275 205.135 201.232 205.278 201.194L206.159 205.275C205.879 205.372 205.48 205.478 204.961 205.593C204.451 205.709 203.826 205.777 203.086 205.795C201.778 205.833 200.6 205.637 199.552 205.204C198.504 204.762 197.672 204.078 197.057 203.155C196.451 202.232 196.152 201.078 196.162 199.693V178.028ZM216.497 205.939C215.094 205.939 213.829 205.689 212.704 205.189C211.588 204.679 210.704 203.93 210.049 202.939C209.405 201.949 209.083 200.727 209.083 199.275C209.083 198.026 209.314 196.991 209.775 196.174C210.237 195.356 210.866 194.703 211.665 194.212C212.463 193.722 213.362 193.352 214.363 193.101C215.373 192.842 216.415 192.654 217.493 192.54C218.791 192.404 219.844 192.284 220.651 192.178C221.46 192.063 222.046 191.89 222.411 191.659C222.786 191.419 222.973 191.048 222.973 190.548V190.462C222.973 189.375 222.652 188.534 222.008 187.937C221.363 187.341 220.435 187.043 219.223 187.043C217.945 187.043 216.93 187.322 216.18 187.88C215.439 188.438 214.939 189.096 214.68 189.856L209.804 189.164C210.189 187.817 210.823 186.692 211.708 185.788C212.593 184.875 213.675 184.192 214.954 183.74C216.233 183.278 217.646 183.047 219.195 183.047C220.263 183.047 221.325 183.173 222.383 183.423C223.441 183.673 224.407 184.086 225.282 184.663C226.157 185.23 226.859 186.005 227.388 186.985C227.927 187.966 228.195 189.193 228.195 190.664V205.493H223.175V202.449H223.004C222.685 203.064 222.238 203.641 221.661 204.179C221.094 204.709 220.377 205.136 219.512 205.463C218.657 205.78 217.651 205.939 216.497 205.939ZM217.853 202.102C218.901 202.102 219.811 201.896 220.58 201.483C221.349 201.059 221.94 200.502 222.353 199.809C222.777 199.117 222.989 198.361 222.989 197.544V194.934C222.825 195.068 222.546 195.193 222.152 195.308C221.767 195.424 221.335 195.525 220.854 195.612C220.372 195.698 219.897 195.774 219.426 195.842C218.954 195.909 218.546 195.967 218.199 196.015C217.42 196.121 216.723 196.294 216.108 196.535C215.492 196.775 215.007 197.111 214.651 197.544C214.295 197.968 214.117 198.516 214.117 199.188C214.117 200.15 214.468 200.877 215.17 201.367C215.872 201.858 216.767 202.102 217.853 202.102ZM252.443 183.336L244.553 205.493H238.783L230.893 183.336H236.46L241.553 199.794H241.784L246.889 183.336H252.443ZM259.303 213.801C258.591 213.801 257.932 213.743 257.326 213.627C256.73 213.522 256.253 213.397 255.898 213.252L257.11 209.185C257.869 209.406 258.548 209.513 259.144 209.503C259.74 209.493 260.263 209.305 260.716 208.94C261.178 208.584 261.567 207.988 261.885 207.151L262.331 205.954L254.298 183.336H259.836L264.942 200.068H265.173L270.294 183.336H275.847L266.976 208.176C266.564 209.348 266.015 210.353 265.332 211.19C264.65 212.036 263.812 212.681 262.822 213.123C261.841 213.574 260.668 213.801 259.303 213.801ZM285.202 205.939C283.799 205.939 282.534 205.689 281.408 205.189C280.294 204.679 279.409 203.93 278.754 202.939C278.109 201.949 277.788 200.727 277.788 199.275C277.788 198.026 278.019 196.991 278.479 196.174C278.941 195.356 279.572 194.703 280.369 194.212C281.167 193.722 282.067 193.352 283.068 193.101C284.076 192.842 285.121 192.654 286.197 192.54C287.496 192.404 288.549 192.284 289.356 192.178C290.165 192.063 290.751 191.89 291.116 191.659C291.49 191.419 291.678 191.048 291.678 190.548V190.462C291.678 189.375 291.356 188.534 290.713 187.937C290.069 187.341 289.139 187.043 287.928 187.043C286.649 187.043 285.635 187.322 284.884 187.88C284.144 188.438 283.644 189.096 283.384 189.856L278.51 189.164C278.894 187.817 279.53 186.692 280.413 185.788C281.298 184.875 282.379 184.192 283.658 183.74C284.937 183.278 286.351 183.047 287.899 183.047C288.968 183.047 290.03 183.173 291.088 183.423C292.144 183.673 293.112 184.086 293.987 184.663C294.861 185.23 295.565 186.005 296.093 186.985C296.631 187.966 296.9 189.193 296.9 190.664V205.493H291.88V202.449H291.708C291.39 203.064 290.944 203.641 290.367 204.179C289.799 204.709 289.082 205.136 288.217 205.463C287.362 205.78 286.356 205.939 285.202 205.939ZM286.558 202.102C287.606 202.102 288.515 201.896 289.285 201.483C290.054 201.059 290.645 200.502 291.06 199.809C291.482 199.117 291.693 198.361 291.693 197.544V194.934C291.53 195.068 291.251 195.193 290.857 195.308C290.471 195.424 290.04 195.525 289.558 195.612C289.077 195.698 288.602 195.774 288.13 195.842C287.659 195.909 287.25 195.967 286.904 196.015C286.125 196.121 285.428 196.294 284.812 196.535C284.197 196.775 283.711 197.111 283.356 197.544C283 197.968 282.822 198.516 282.822 199.188C282.822 200.15 283.173 200.877 283.875 201.367C284.578 201.858 285.472 202.102 286.558 202.102ZM312.458 205.493V175.951H323.536C325.804 175.951 327.708 176.374 329.249 177.22C330.795 178.066 331.964 179.23 332.753 180.711C333.551 182.182 333.95 183.855 333.95 185.731C333.95 187.625 333.551 189.308 332.753 190.779C331.955 192.251 330.777 193.41 329.218 194.255C327.662 195.092 325.744 195.51 323.463 195.51H316.122V191.111H322.742C324.07 191.111 325.156 190.88 326.003 190.418C326.848 189.957 327.474 189.322 327.878 188.514C328.291 187.707 328.497 186.779 328.497 185.731C328.497 184.682 328.291 183.759 327.878 182.961C327.474 182.163 326.844 181.542 325.988 181.1C325.143 180.648 324.05 180.422 322.714 180.422H317.809V205.493H312.458ZM344.347 205.939C342.942 205.939 341.677 205.689 340.554 205.189C339.438 204.679 338.553 203.93 337.899 202.939C337.255 201.949 336.932 200.727 336.932 199.275C336.932 198.026 337.163 196.991 337.624 196.174C338.086 195.356 338.716 194.703 339.514 194.212C340.312 193.722 341.212 193.352 342.213 193.101C343.221 192.842 344.265 192.654 345.343 192.54C346.64 192.404 347.694 192.284 348.501 192.178C349.31 192.063 349.896 191.89 350.261 191.659C350.635 191.419 350.824 191.048 350.824 190.548V190.462C350.824 189.375 350.501 188.534 349.858 187.937C349.213 187.341 348.284 187.043 347.073 187.043C345.793 187.043 344.78 187.322 344.028 187.88C343.289 188.438 342.789 189.096 342.529 189.856L337.655 189.164C338.039 187.817 338.672 186.692 339.558 185.788C340.443 184.875 341.524 184.192 342.803 183.74C344.082 183.278 345.496 183.047 347.044 183.047C348.112 183.047 349.175 183.173 350.233 183.423C351.289 183.673 352.256 184.086 353.132 184.663C354.006 185.23 354.709 186.005 355.238 186.985C355.776 187.966 356.045 189.193 356.045 190.664V205.493H351.025V202.449H350.852C350.535 203.064 350.088 203.641 349.512 204.179C348.944 204.709 348.227 205.136 347.361 205.463C346.506 205.78 345.501 205.939 344.347 205.939ZM345.702 202.102C346.751 202.102 347.66 201.896 348.43 201.483C349.199 201.059 349.79 200.502 350.203 199.809C350.627 199.117 350.838 198.361 350.838 197.544V194.934C350.675 195.068 350.396 195.193 350.002 195.308C349.616 195.424 349.184 195.525 348.702 195.612C348.222 195.698 347.747 195.774 347.274 195.842C346.803 195.909 346.394 195.967 346.049 196.015C345.27 196.121 344.573 196.294 343.957 196.535C343.342 196.775 342.856 197.111 342.501 197.544C342.145 197.968 341.967 198.516 341.967 199.188C341.967 200.15 342.319 200.877 343.02 201.367C343.722 201.858 344.617 202.102 345.702 202.102ZM372.36 183.336V187.375H359.623V183.336H372.36ZM362.766 178.028H367.988V198.828C367.988 199.53 368.094 200.068 368.307 200.444C368.528 200.809 368.815 201.059 369.171 201.194C369.529 201.328 369.922 201.395 370.354 201.395C370.681 201.395 370.979 201.372 371.249 201.324C371.528 201.275 371.739 201.232 371.883 201.194L372.765 205.275C372.485 205.372 372.086 205.478 371.565 205.593C371.057 205.709 370.432 205.777 369.692 205.795C368.383 205.833 367.206 205.637 366.158 205.204C365.109 204.762 364.276 204.078 363.661 203.155C363.056 202.232 362.758 201.078 362.766 199.693V178.028ZM386.298 205.925C384.076 205.925 382.158 205.463 380.543 204.54C378.937 203.608 377.7 202.29 376.835 200.588C375.97 198.876 375.537 196.862 375.537 194.544C375.537 192.264 375.97 190.265 376.835 188.543C377.71 186.812 378.931 185.466 380.5 184.504C382.066 183.533 383.907 183.047 386.024 183.047C387.389 183.047 388.677 183.269 389.889 183.711C391.11 184.144 392.188 184.817 393.121 185.731C394.062 186.644 394.804 187.808 395.341 189.221C395.88 190.625 396.151 192.299 396.151 194.242V195.842H377.989V192.322H391.145C391.135 191.322 390.919 190.433 390.495 189.654C390.072 188.865 389.48 188.245 388.721 187.793C387.97 187.341 387.096 187.115 386.095 187.115C385.028 187.115 384.091 187.375 383.283 187.894C382.476 188.404 381.846 189.077 381.392 189.914C380.951 190.741 380.724 191.649 380.716 192.64V195.713C380.716 197.001 380.951 198.107 381.423 199.03C381.893 199.944 382.552 200.646 383.399 201.136C384.244 201.617 385.235 201.858 386.369 201.858C387.129 201.858 387.817 201.752 388.432 201.539C389.048 201.319 389.582 200.996 390.034 200.573C390.486 200.15 390.826 199.626 391.057 199.001L395.933 199.549C395.625 200.838 395.039 201.963 394.173 202.924C393.317 203.877 392.222 204.618 390.884 205.146C389.548 205.665 388.02 205.925 386.298 205.925ZM405.789 175.951V205.493H400.568V175.951H405.789ZM434.663 188.572V192.87H421.364V188.572H434.663ZM454.255 205.493H448.543L458.944 175.951H465.551L475.965 205.493H470.253L462.361 182.009H462.131L454.255 205.493ZM454.444 193.91H470.022V198.208H454.444V193.91ZM484.848 175.951V205.493H479.626V175.951H484.848ZM495.438 175.951V205.493H490.216V175.951H495.438ZM511.114 205.493V175.951H522.193C524.462 175.951 526.365 176.345 527.904 177.133C529.452 177.922 530.621 179.028 531.41 180.451C532.208 181.865 532.607 183.514 532.607 185.399C532.607 187.293 532.203 188.938 531.396 190.332C530.596 191.717 529.42 192.789 527.861 193.549C526.302 194.298 524.391 194.674 522.121 194.674H514.231V190.231H521.399C522.726 190.231 523.812 190.048 524.66 189.683C525.505 189.308 526.131 188.764 526.533 188.053C526.948 187.332 527.154 186.447 527.154 185.399C527.154 184.351 526.948 183.456 526.533 182.716C526.121 181.966 525.492 181.398 524.644 181.014C523.798 180.619 522.707 180.422 521.371 180.422H516.466V205.493H511.114ZM526.377 192.106L533.689 205.493H527.717L520.534 192.106H526.377ZM537.303 205.493V183.336H542.524V205.493H537.303ZM539.928 180.191C539.1 180.191 538.389 179.917 537.793 179.369C537.197 178.811 536.898 178.143 536.898 177.364C536.898 176.576 537.197 175.907 537.793 175.359C538.389 174.801 539.1 174.522 539.928 174.522C540.764 174.522 541.476 174.801 542.062 175.359C542.66 175.907 542.957 176.576 542.957 177.364C542.957 178.143 542.66 178.811 542.062 179.369C541.476 179.917 540.764 180.191 539.928 180.191ZM557.529 214.263C555.655 214.263 554.043 214.008 552.696 213.498C551.351 212.998 550.27 212.325 549.453 211.479C548.633 210.632 548.067 209.695 547.748 208.666L552.452 207.527C552.664 207.959 552.97 208.387 553.375 208.81C553.779 209.242 554.323 209.599 555.005 209.878C555.698 210.165 556.568 210.31 557.616 210.31C559.097 210.31 560.322 209.949 561.294 209.229C562.265 208.517 562.751 207.344 562.751 205.709V201.511H562.492C562.223 202.049 561.828 202.602 561.31 203.17C560.799 203.738 560.121 204.213 559.275 204.598C558.438 204.983 557.385 205.175 556.116 205.175C554.413 205.175 552.87 204.776 551.485 203.978C550.11 203.17 549.013 201.968 548.196 200.372C547.389 198.766 546.984 196.756 546.984 194.342C546.984 191.909 547.389 189.856 548.196 188.183C549.013 186.5 550.114 185.226 551.499 184.36C552.885 183.485 554.429 183.047 556.131 183.047C557.428 183.047 558.496 183.269 559.333 183.711C560.178 184.144 560.852 184.668 561.352 185.283C561.852 185.889 562.232 186.461 562.492 187H562.78V183.336H567.929V205.853C567.929 207.748 567.477 209.315 566.574 210.555C565.669 211.796 564.434 212.724 562.866 213.34C561.299 213.954 559.52 214.263 557.529 214.263ZM557.573 201.078C558.678 201.078 559.62 200.809 560.4 200.271C561.179 199.733 561.769 198.958 562.174 197.948C562.579 196.938 562.78 195.726 562.78 194.313C562.78 192.918 562.579 191.697 562.174 190.649C561.78 189.601 561.193 188.789 560.415 188.212C559.645 187.625 558.698 187.332 557.573 187.332C556.409 187.332 555.439 187.635 554.66 188.24C553.88 188.846 553.294 189.678 552.899 190.736C552.505 191.784 552.309 192.976 552.309 194.313C552.309 195.67 552.505 196.857 552.899 197.876C553.303 198.886 553.893 199.675 554.673 200.242C555.462 200.799 556.428 201.078 557.573 201.078ZM578.502 192.51V205.493H573.28V175.951H578.388V187.101H578.648C579.166 185.851 579.97 184.865 581.056 184.144C582.152 183.413 583.547 183.047 585.239 183.047C586.778 183.047 588.119 183.37 589.264 184.014C590.409 184.658 591.293 185.601 591.918 186.841C592.551 188.082 592.87 189.596 592.87 191.385V205.493H587.649V192.193C587.649 190.702 587.263 189.543 586.494 188.716C585.735 187.88 584.666 187.461 583.291 187.461C582.368 187.461 581.542 187.663 580.812 188.067C580.09 188.461 579.522 189.034 579.11 189.784C578.705 190.534 578.502 191.443 578.502 192.51ZM609.257 183.336V187.375H596.519V183.336H609.257ZM599.663 178.028H604.885V198.828C604.885 199.53 604.991 200.068 605.203 200.444C605.424 200.809 605.712 201.059 606.067 201.194C606.424 201.328 606.818 201.395 607.251 201.395C607.578 201.395 607.876 201.372 608.146 201.324C608.425 201.275 608.636 201.232 608.78 201.194L609.659 205.275C609.381 205.372 608.983 205.478 608.462 205.593C607.953 205.709 607.329 205.777 606.587 205.795C605.28 205.833 604.103 205.637 603.055 205.204C602.004 204.762 601.174 204.078 600.558 203.155C599.952 202.232 599.654 201.078 599.663 199.693V178.028ZM630.817 189.193L626.057 189.712C625.922 189.231 625.688 188.779 625.351 188.356C625.024 187.933 624.582 187.591 624.023 187.332C623.465 187.072 622.782 186.942 621.975 186.942C620.889 186.942 619.976 187.178 619.234 187.649C618.505 188.12 618.143 188.731 618.153 189.481C618.143 190.125 618.379 190.649 618.86 191.053C619.35 191.457 620.157 191.789 621.283 192.048L625.062 192.857C627.159 193.309 628.716 194.024 629.736 195.006C630.764 195.987 631.284 197.27 631.294 198.858C631.284 200.251 630.875 201.483 630.068 202.549C629.269 203.608 628.159 204.435 626.736 205.031C625.311 205.627 623.677 205.925 621.831 205.925C619.119 205.925 616.936 205.358 615.282 204.223C613.628 203.079 612.643 201.486 612.325 199.449L617.417 198.958C617.648 199.958 618.139 200.713 618.888 201.222C619.639 201.732 620.615 201.988 621.816 201.988C623.056 201.988 624.052 201.732 624.803 201.222C625.563 200.713 625.942 200.083 625.942 199.333C625.942 198.698 625.698 198.174 625.205 197.76C624.725 197.347 623.976 197.03 622.956 196.809L619.177 196.015C617.052 195.573 615.48 194.828 614.46 193.78C613.441 192.721 612.936 191.385 612.946 189.769C612.936 188.404 613.306 187.221 614.055 186.221C614.816 185.211 615.87 184.432 617.215 183.884C618.57 183.326 620.132 183.047 621.904 183.047C624.499 183.047 626.543 183.6 628.033 184.706C629.534 185.812 630.462 187.308 630.817 189.193ZM645.907 205.493V175.951H656.984C659.252 175.951 661.157 176.345 662.697 177.133C664.243 177.922 665.412 179.028 666.201 180.451C666.999 181.865 667.398 183.514 667.398 185.399C667.398 187.293 666.996 188.938 666.186 190.332C665.389 191.717 664.211 192.789 662.653 193.549C661.095 194.298 659.181 194.674 656.911 194.674H649.022V190.231H656.19C657.518 190.231 658.604 190.048 659.451 189.683C660.296 189.308 660.922 188.764 661.326 188.053C661.739 187.332 661.945 186.447 661.945 185.399C661.945 184.351 661.739 183.456 661.326 182.716C660.912 181.966 660.283 181.398 659.436 181.014C658.591 180.619 657.498 180.422 656.162 180.422H651.257V205.493H645.907ZM661.166 192.106L668.48 205.493H662.509L655.325 192.106H661.166ZM681.585 205.925C679.364 205.925 677.446 205.463 675.83 204.54C674.225 203.608 672.988 202.29 672.123 200.588C671.257 198.876 670.824 196.862 670.824 194.544C670.824 192.264 671.257 190.265 672.123 188.543C672.998 186.812 674.218 185.466 675.787 184.504C677.354 183.533 679.195 183.047 681.311 183.047C682.676 183.047 683.965 183.269 685.177 183.711C686.398 184.144 687.475 184.817 688.408 185.731C689.35 186.644 690.092 187.808 690.628 189.221C691.168 190.625 691.438 192.299 691.438 194.242V195.842H673.277V192.322H686.432C686.422 191.322 686.206 190.433 685.783 189.654C685.36 188.865 684.768 188.245 684.008 187.793C683.258 187.341 682.384 187.115 681.383 187.115C680.317 187.115 679.379 187.375 678.571 187.894C677.763 188.404 677.134 189.077 676.682 189.914C676.239 190.741 676.012 191.649 676.003 192.64V195.713C676.003 197.001 676.239 198.107 676.71 199.03C677.18 199.944 677.84 200.646 678.686 201.136C679.532 201.617 680.523 201.858 681.658 201.858C682.416 201.858 683.105 201.752 683.719 201.539C684.335 201.319 684.87 200.996 685.321 200.573C685.773 200.15 686.114 199.626 686.344 199.001L691.221 199.549C690.912 200.838 690.326 201.963 689.461 202.924C688.604 203.877 687.51 204.618 686.173 205.146C684.835 205.665 683.307 205.925 681.585 205.925ZM713.366 189.193L708.607 189.712C708.472 189.231 708.236 188.779 707.9 188.356C707.573 187.933 707.13 187.591 706.572 187.332C706.014 187.072 705.332 186.942 704.523 186.942C703.437 186.942 702.524 187.178 701.783 187.649C701.053 188.12 700.692 188.731 700.701 189.481C700.692 190.125 700.928 190.649 701.408 191.053C701.898 191.457 702.707 191.789 703.831 192.048L707.61 192.857C709.708 193.309 711.265 194.024 712.284 195.006C713.313 195.987 713.833 197.27 713.843 198.858C713.833 200.251 713.424 201.483 712.617 202.549C711.819 203.608 710.707 204.435 709.284 205.031C707.861 205.627 706.226 205.925 704.38 205.925C701.667 205.925 699.485 205.358 697.83 204.223C696.177 203.079 695.191 201.486 694.874 199.449L699.965 198.958C700.196 199.958 700.687 200.713 701.436 201.222C702.188 201.732 703.163 201.988 704.365 201.988C705.606 201.988 706.6 201.732 707.351 201.222C708.111 200.713 708.49 200.083 708.49 199.333C708.49 198.698 708.246 198.174 707.756 197.76C707.274 197.347 706.525 197.03 705.506 196.809L701.727 196.015C699.6 195.573 698.029 194.828 697.009 193.78C695.99 192.721 695.485 191.385 695.494 189.769C695.485 188.404 695.855 187.221 696.605 186.221C697.365 185.211 698.418 184.432 699.763 183.884C701.119 183.326 702.683 183.047 704.452 183.047C707.048 183.047 709.091 183.6 710.582 184.706C712.082 185.812 713.011 187.308 713.366 189.193ZM727.956 205.925C725.736 205.925 723.818 205.463 722.201 204.54C720.595 203.608 719.36 202.29 718.493 200.588C717.629 198.876 717.196 196.862 717.196 194.544C717.196 192.264 717.629 190.265 718.493 188.543C719.37 186.812 720.592 185.466 722.159 184.504C723.725 183.533 725.567 183.047 727.683 183.047C729.047 183.047 730.337 183.269 731.548 183.711C732.77 184.144 733.847 184.817 734.78 185.731C735.722 186.644 736.464 187.808 737 189.221C737.54 190.625 737.809 192.299 737.809 194.242V195.842H719.649V192.322H732.804C732.794 191.322 732.577 190.433 732.155 189.654C731.732 188.865 731.139 188.245 730.38 187.793C729.63 187.341 728.755 187.115 727.755 187.115C726.687 187.115 725.751 187.375 724.943 187.894C724.134 188.404 723.504 189.077 723.054 189.914C722.611 190.741 722.384 191.649 722.375 192.64V195.713C722.375 197.001 722.611 198.107 723.082 199.03C723.552 199.944 724.212 200.646 725.057 201.136C725.904 201.617 726.895 201.858 728.03 201.858C728.788 201.858 729.477 201.752 730.091 201.539C730.706 201.319 731.242 200.996 731.693 200.573C732.145 200.15 732.486 199.626 732.716 199.001L737.593 199.549C737.284 200.838 736.698 201.963 735.832 202.924C734.976 203.877 733.88 204.618 732.545 205.146C731.207 205.665 729.679 205.925 727.956 205.925ZM742.226 205.493V183.336H747.289V187.029H747.52C747.924 185.75 748.617 184.764 749.598 184.072C750.588 183.37 751.719 183.019 752.987 183.019C753.275 183.019 753.598 183.033 753.954 183.062C754.319 183.081 754.623 183.115 754.862 183.163V187.966C754.641 187.889 754.291 187.822 753.81 187.764C753.338 187.697 752.882 187.663 752.439 187.663C751.488 187.663 750.631 187.87 749.871 188.284C749.122 188.687 748.529 189.25 748.097 189.971C747.665 190.693 747.448 191.524 747.448 192.467V205.493H742.226ZM778.797 183.336L770.906 205.493H765.137L757.247 183.336H762.814L767.906 199.794H768.137L773.243 183.336H778.797ZM791.466 205.925C789.244 205.925 787.326 205.463 785.709 204.54C784.103 203.608 782.868 202.29 782.004 200.588C781.137 198.876 780.704 196.862 780.704 194.544C780.704 192.264 781.137 190.265 782.004 188.543C782.877 186.812 784.099 185.466 785.667 184.504C787.233 183.533 789.076 183.047 791.191 183.047C792.557 183.047 793.846 183.269 795.058 183.711C796.277 184.144 797.356 184.817 798.288 185.731C799.231 186.644 799.971 187.808 800.509 189.221C801.048 190.625 801.317 192.299 801.317 194.242V195.842H783.156V192.322H796.312C796.302 191.322 796.085 190.433 795.663 189.654C795.239 188.865 794.649 188.245 793.889 187.793C793.139 187.341 792.263 187.115 791.264 187.115C790.195 187.115 789.258 187.375 788.451 187.894C787.642 188.404 787.012 189.077 786.562 189.914C786.119 190.741 785.893 191.649 785.883 192.64V195.713C785.883 197.001 786.119 198.107 786.59 199.03C787.061 199.944 787.719 200.646 788.566 201.136C789.413 201.617 790.403 201.858 791.538 201.858C792.297 201.858 792.985 201.752 793.6 201.539C794.216 201.319 794.749 200.996 795.201 200.573C795.654 200.15 795.995 199.626 796.226 199.001L801.101 199.549C800.793 200.838 800.206 201.963 799.342 202.924C798.485 203.877 797.388 204.618 796.053 205.146C794.716 205.665 793.187 205.925 791.466 205.925ZM813.958 205.881C812.216 205.881 810.658 205.435 809.284 204.54C807.909 203.646 806.821 202.348 806.023 200.646C805.225 198.944 804.826 196.875 804.826 194.443C804.826 191.982 805.23 189.904 806.038 188.212C806.856 186.509 807.957 185.226 809.34 184.36C810.725 183.485 812.269 183.047 813.971 183.047C815.269 183.047 816.337 183.269 817.173 183.711C818.011 184.144 818.675 184.668 819.165 185.283C819.655 185.889 820.035 186.461 820.304 187H820.521V175.951H825.757V205.493H820.621V202.001H820.304C820.035 202.54 819.645 203.112 819.136 203.718C818.625 204.314 817.953 204.824 817.116 205.247C816.28 205.67 815.226 205.881 813.958 205.881ZM815.414 201.598C816.52 201.598 817.463 201.3 818.241 200.703C819.019 200.098 819.611 199.256 820.015 198.179C820.419 197.102 820.621 195.847 820.621 194.414C820.621 192.981 820.419 191.736 820.015 190.678C819.62 189.62 819.034 188.798 818.255 188.212C817.486 187.625 816.539 187.332 815.414 187.332C814.25 187.332 813.279 187.635 812.5 188.24C811.72 188.846 811.134 189.683 810.74 190.75C810.345 191.818 810.149 193.039 810.149 194.414C810.149 195.799 810.345 197.035 810.74 198.121C811.144 199.198 811.735 200.05 812.515 200.674C813.303 201.29 814.27 201.598 815.414 201.598ZM834.537 205.81C833.663 205.81 832.913 205.501 832.288 204.887C831.662 204.271 831.354 203.52 831.364 202.637C831.354 201.77 831.662 201.03 832.288 200.415C832.913 199.799 833.663 199.492 834.537 199.492C835.384 199.492 836.119 199.799 836.744 200.415C837.379 201.03 837.701 201.77 837.71 202.637C837.701 203.223 837.547 203.756 837.25 204.237C836.96 204.719 836.576 205.103 836.096 205.391C835.624 205.67 835.105 205.81 834.537 205.81Z" fill="#AFAFAF"/>
</svg>
